<svg width="59" height="59" viewBox="0 0 59 59" fill="none" xmlns="http://www.w3.org/2000/svg">
<rect width="59" height="59" fill="#E5E5E5"/>
<g clip-path="url(#clip0)">
<rect x="-558" y="-3088" width="1500" height="6956" fill="white"/>
<rect x="-564.174" y="-355" width="1512" height="488.941" fill="url(#paint0_linear)"/>
<path d="M1001.14 -56.351C1001.14 -56.351 994.328 -21.1754 717.739 -41.7783C441.149 -62.3811 219.061 -176.45 -126.335 -56.351C-471.731 63.7484 -640.001 11.9901 -640.001 11.9901L-605.938 164.753L1023.62 137.115" fill="white"/>
<g filter="url(#filter0_d)">
<rect x="-298" y="-234" width="980" height="504" rx="30" fill="white"/>
</g>
<rect x="-101.467" y="-40.5" width="261" height="225" rx="14.5" fill="white" stroke="url(#paint1_linear)"/>
<g clip-path="url(#clip1)">
<path d="M29.0493 0.358317C13.032 0.344837 0.0403464 13.3186 0.026866 29.3359C0.0133855 45.3532 12.9871 58.3448 29.0044 58.3583C45.0196 58.3448 58.0022 45.3735 58.0269 29.3583C58.0269 13.35 45.0576 0.371798 29.0493 0.358317ZM29.0044 53.5325C15.6537 53.5325 4.83033 42.7091 4.83033 29.3583C4.83033 16.0076 15.6537 5.18421 29.0044 5.18421C42.3507 5.19769 53.1651 16.0121 53.1785 29.3583C53.1785 42.7091 42.3552 53.5325 29.0044 53.5325Z" fill="url(#paint2_linear)"/>
<path d="M36.8378 27.9442C38.7772 26.851 39.8254 24.6626 39.464 22.4673C39.0151 19.0781 34.9749 17.7986 31.7875 17.5293V12.4341H28.6451V17.4844H26.5352V12.4341H23.3928V17.4844H17.063V20.7391H19.4198C20.4748 20.7391 20.991 21.0534 20.991 21.9063V35.89C20.991 37.0572 20.4074 37.4164 19.7789 37.4164H17.3772V40.7384H23.4825V45.9009H26.6474V40.7384H28.7572V45.9009H31.8324V40.7384H32.5057C38.9701 40.7384 41.125 37.5735 41.125 33.264C41.0733 30.7229 39.3113 28.5367 36.8378 27.9442ZM26.5351 20.9411H28.7797C30.3509 20.9411 33.4484 21.2105 33.4484 23.7693C33.5562 25.4393 32.3463 26.9028 30.6876 27.1137H26.5351V20.9411ZM30.0142 37.102V37.0796H26.5351V30.3458H30.5754C31.5181 30.3458 35.0645 30.6601 35.0645 33.174C35.0645 35.6879 33.3812 37.102 30.0142 37.102Z" fill="url(#paint3_linear)"/>
</g>
</g>
<defs>
<filter id="filter0_d" x="-398" y="-284" width="1180" height="704" filterUnits="userSpaceOnUse" color-interpolation-filters="sRGB">
<feFlood flood-opacity="0" result="BackgroundImageFix"/>
<feColorMatrix in="SourceAlpha" type="matrix" values="0 0 0 0 0 0 0 0 0 0 0 0 0 0 0 0 0 0 127 0"/>
<feOffset dy="50"/>
<feGaussianBlur stdDeviation="50"/>
<feColorMatrix type="matrix" values="0 0 0 0 0 0 0 0 0 0 0 0 0 0 0 0 0 0 0.1 0"/>
<feBlend mode="normal" in2="BackgroundImageFix" result="effect1_dropShadow"/>
<feBlend mode="normal" in="SourceGraphic" in2="effect1_dropShadow" result="shape"/>
</filter>
<linearGradient id="paint0_linear" x1="267.426" y1="-431.963" x2="276.354" y2="434.971" gradientUnits="userSpaceOnUse">
<stop stop-color="#FD749B"/>
<stop offset="1" stop-color="#281AC8"/>
</linearGradient>
<linearGradient id="paint1_linear" x1="42.1327" y1="-76.5741" x2="53.1341" y2="323.884" gradientUnits="userSpaceOnUse">
<stop stop-color="#FD749B"/>
<stop offset="1" stop-color="#281AC8"/>
</linearGradient>
<linearGradient id="paint2_linear" x1="31.9269" y1="-8.77133" x2="35.1991" y2="93.9744" gradientUnits="userSpaceOnUse">
<stop stop-color="#FD749B"/>
<stop offset="1" stop-color="#281AC8"/>
</linearGradient>
<linearGradient id="paint3_linear" x1="30.2971" y1="7.16622" x2="32.9207" y2="66.3958" gradientUnits="userSpaceOnUse">
<stop stop-color="#FD749B"/>
<stop offset="1" stop-color="#281AC8"/>
</linearGradient>
<clipPath id="clip0">
<rect x="-558" y="-3088" width="1500" height="6956" fill="white"/>
</clipPath>
<clipPath id="clip1">
<rect x="0.0268555" y="0.358398" width="58" height="58" fill="white"/>
</clipPath>
</defs>
</svg>
